<svg width="111" height="55" viewBox="0 0 111 55" fill="none" xmlns="http://www.w3.org/2000/svg">
<path d="M104.949 0H6.1232C2.78109 0 0.0717773 2.70842 0.0717773 6.04943V39.9967C0.0717773 43.3377 2.78109 46.0462 6.1232 46.0462H104.949C108.291 46.0462 111 43.3377 111 39.9967V6.04943C111 2.70842 108.291 0 104.949 0Z" fill="white"/>
<path d="M88.2006 21.3427C88.6184 21.765 88.8528 22.335 88.8528 22.9289C88.8528 23.5229 88.6184 24.0929 88.2006 24.5152L82.6303 30.2223C82.5595 30.2944 82.475 30.3516 82.3818 30.3906C82.2885 30.4296 82.1885 30.4496 82.0874 30.4494C81.9895 30.4505 81.8923 30.4317 81.8018 30.3941C81.7114 30.3565 81.6295 30.3009 81.5613 30.2306C81.4906 30.162 81.4342 30.0802 81.3952 29.9897C81.3562 29.8993 81.3355 29.8021 81.3341 29.7036C81.3327 29.6052 81.3507 29.5074 81.3871 29.4159C81.4235 29.3244 81.4776 29.241 81.5462 29.1704L87.1183 23.4666C87.1896 23.397 87.2463 23.3139 87.285 23.2222C87.3237 23.1304 87.3436 23.0318 87.3436 22.9323C87.3436 22.8327 87.3237 22.7341 87.285 22.6423C87.2463 22.5506 87.1896 22.4675 87.1183 22.3979L81.5462 16.6975C81.4076 16.5549 81.3313 16.3631 81.3341 16.1642C81.3369 15.9654 81.4186 15.7758 81.5613 15.6372C81.7039 15.4986 81.8958 15.4223 82.0947 15.4251C82.2936 15.4279 82.4832 15.5096 82.6219 15.6522L88.1906 21.351L88.2006 21.3427ZM98.6298 28.9416H89.6103C89.4197 28.9543 89.2409 29.039 89.1104 29.1785C88.9798 29.318 88.9072 29.5019 88.9072 29.693C88.9072 29.884 88.9798 30.0679 89.1104 30.2075C89.2409 30.347 89.4197 30.4317 89.6103 30.4444H98.6298C98.8205 30.4317 98.9993 30.347 99.1298 30.2075C99.2604 30.0679 99.333 29.884 99.333 29.693C99.333 29.5019 99.2604 29.318 99.1298 29.1785C98.9993 29.039 98.8205 28.9543 98.6298 28.9416Z" fill="#C6C6C6"/>
<path d="M63.9231 25.5569C63.9247 24.3583 63.5101 23.1963 62.75 22.2692C61.99 21.3421 60.9317 20.7075 59.7557 20.4736C58.5798 20.2396 57.359 20.421 56.3019 20.9866C55.2448 21.5522 54.4168 22.467 53.9592 23.575C53.5017 24.6829 53.4429 25.9152 53.793 27.0616C54.1431 28.208 54.8804 29.1974 55.8789 29.8609C56.8775 30.5244 58.0754 30.821 59.2683 30.6999C60.4612 30.5788 61.5751 30.0476 62.4199 29.1969V29.9767C62.4199 30.176 62.499 30.3671 62.64 30.508C62.781 30.6489 62.9721 30.7281 63.1715 30.7281C63.3708 30.7281 63.562 30.6489 63.703 30.508C63.8439 30.3671 63.9231 30.176 63.9231 29.9767V25.6454C63.9231 25.6454 63.9231 25.6337 63.9231 25.6271C63.9231 25.6204 63.9231 25.5803 63.9231 25.5569ZM58.7452 29.2303C58.0185 29.2303 57.308 29.0149 56.7037 28.6113C56.0995 28.2076 55.6285 27.6339 55.3503 26.9627C55.0722 26.2915 54.9995 25.5529 55.1412 24.8403C55.283 24.1277 55.633 23.4732 56.1469 22.9594C56.6608 22.4457 57.3156 22.0959 58.0284 21.9541C58.7412 21.8124 59.48 21.8851 60.1515 22.1631C60.8229 22.4412 61.3968 22.912 61.8006 23.5161C62.2043 24.1202 62.4199 24.8304 62.4199 25.5569C62.4172 26.5289 62.0293 27.4601 61.3412 28.1468C60.6531 28.8334 59.7208 29.2194 58.7486 29.2203L58.7452 29.2303Z" fill="#575756"/>
<path d="M71.6552 20.3842C70.9718 20.3836 70.2951 20.5187 69.6643 20.7815C69.0336 21.0444 68.4612 21.4297 67.9805 21.9153V15.8859C67.9805 15.6866 67.9014 15.4955 67.7604 15.3546C67.6194 15.2137 67.4283 15.1345 67.2289 15.1345C67.0296 15.1345 66.8384 15.2137 66.6974 15.3546C66.5565 15.4955 66.4773 15.6866 66.4773 15.8859V25.4685C66.4773 25.4685 66.4773 25.4802 66.4773 25.4868C66.4773 25.4935 66.4773 25.5336 66.4773 25.557C66.4773 26.5807 66.781 27.5815 67.3499 28.4327C67.9189 29.2839 68.7275 29.9474 69.6737 30.3391C70.6198 30.7309 71.6609 30.8334 72.6653 30.6337C73.6697 30.434 74.5923 29.941 75.3165 29.2171C76.0406 28.4932 76.5337 27.5709 76.7335 26.5668C76.9333 25.5627 76.8308 24.522 76.4389 23.5761C76.047 22.6303 75.3833 21.8219 74.5318 21.2532C73.6803 20.6844 72.6792 20.3808 71.6552 20.3808V20.3842ZM71.6552 29.2337C70.9284 29.2337 70.2179 29.0183 69.6137 28.6146C69.0094 28.211 68.5384 27.6373 68.2603 26.9661C67.9821 26.2948 67.9094 25.5562 68.0512 24.8437C68.1929 24.1311 68.5429 23.4766 69.0568 22.9628C69.5707 22.4491 70.2255 22.0992 70.9383 21.9575C71.6511 21.8158 72.3899 21.8885 73.0614 22.1665C73.7328 22.4446 74.3067 22.9154 74.7105 23.5195C75.1143 24.1236 75.3298 24.8338 75.3298 25.5603C75.3262 26.5323 74.9375 27.4632 74.2488 28.1492C73.56 28.8352 72.6274 29.2204 71.6552 29.2204V29.2337Z" fill="#575756"/>
<path d="M52.1445 29.2204H45.9644V15.8859C45.9644 15.6866 45.8852 15.4955 45.7443 15.3546C45.6033 15.2137 45.4122 15.1345 45.2128 15.1345C45.0135 15.1345 44.8223 15.2137 44.6813 15.3546C44.5404 15.4955 44.4612 15.6866 44.4612 15.8859V29.9768C44.461 30.0755 44.4803 30.1733 44.5179 30.2646C44.5556 30.3558 44.611 30.4387 44.6808 30.5086C44.7507 30.5784 44.8336 30.6337 44.9249 30.6714C45.0162 30.7091 45.114 30.7284 45.2128 30.7281H52.1478C52.3471 30.7281 52.5383 30.649 52.6793 30.5081C52.8202 30.3671 52.8994 30.176 52.8994 29.9768C52.8994 29.7775 52.8202 29.5864 52.6793 29.4455C52.5383 29.3045 52.3471 29.2254 52.1478 29.2254L52.1445 29.2204Z" fill="#575756"/>
<path d="M31.8772 17.5558H38.8055V15.3167H31.8772C30.7762 15.3189 29.721 15.7574 28.9429 16.5362C28.1649 17.3149 27.7274 18.3703 27.7266 19.4709V19.9869C27.7274 21.0881 28.1653 22.144 28.9441 22.9228C29.7229 23.7017 30.779 24.1398 31.8805 24.1412H32.3816H34.6582C35.1653 24.1429 35.6512 24.3451 36.0098 24.7036C36.3684 25.062 36.5706 25.5477 36.5724 26.0547V26.5723C36.5706 27.0793 36.3684 27.5649 36.0098 27.9234C35.6512 28.2819 35.1653 28.4841 34.6582 28.4858H27.7266V30.7233H34.6549C35.7562 30.7219 36.812 30.284 37.5907 29.5055C38.3695 28.727 38.8075 27.6716 38.8089 26.5706V26.053C38.8075 24.9521 38.3695 23.8966 37.5907 23.1181C36.812 22.3397 35.7562 21.9017 34.6549 21.9004H34.1538H31.8772C31.3698 21.8986 30.8837 21.6962 30.5251 21.3374C30.1664 20.9786 29.9644 20.4925 29.9631 19.9852V19.4693C29.9648 18.9623 30.1671 18.4766 30.5256 18.1182C30.8842 17.7597 31.3701 17.5575 31.8772 17.5558Z" fill="#3C3C3B"/>
<path d="M16.92 19.6145V19.4709C16.9213 18.9634 17.1236 18.477 17.4826 18.1182C17.8416 17.7593 18.3281 17.5571 18.8358 17.5558H25.7641V15.3167H18.8358C17.7341 15.318 16.6779 15.7561 15.8988 16.5349C15.1198 17.3137 14.6815 18.3696 14.6802 19.4709V30.7233H16.92V24.1428H23.5243V21.9037H16.92V19.6145Z" fill="#3C3C3B"/>
<path d="M0.643057 49.5059H0V54.2529H0.437613H0.643057H2.98312V53.6652H0.643057V49.5059Z" fill="#DADADA"/>
<path d="M5.99445 51.4496C5.88217 51.3014 5.73842 51.18 5.57353 51.094C5.36954 50.9895 5.14297 50.9367 4.91378 50.9404C4.62723 50.9366 4.34558 51.0148 4.10202 51.1658C3.86326 51.3165 3.66761 51.5265 3.53413 51.7752C3.39698 52.0417 3.32544 52.3371 3.32544 52.6368C3.32544 52.9365 3.39698 53.2319 3.53413 53.4984C3.6687 53.7452 3.86566 53.9525 4.10536 54.0995C4.34853 54.2482 4.62876 54.3251 4.91378 54.3216C5.14572 54.326 5.3752 54.2733 5.58189 54.168C5.7458 54.0825 5.88761 53.9602 5.99612 53.8106V54.2531H6.61913V51.0038H5.99445V51.4496ZM5.7556 53.4316C5.6619 53.5348 5.54652 53.616 5.41773 53.6694C5.28894 53.7228 5.14992 53.7471 5.01065 53.7405C4.81883 53.7439 4.62981 53.6942 4.46447 53.5969C4.30583 53.5025 4.17635 53.3661 4.09033 53.2028C4.00247 53.0241 3.95678 52.8276 3.95678 52.6285C3.95678 52.4293 4.00247 52.2328 4.09033 52.0541C4.17533 51.8917 4.30293 51.7555 4.45946 51.66C4.62525 51.567 4.81218 51.5181 5.0023 51.5181C5.19242 51.5181 5.37935 51.567 5.54514 51.66C5.69971 51.7533 5.82433 51.8889 5.90425 52.0507C5.99278 52.2326 6.03631 52.433 6.03119 52.6351C6.04425 52.926 5.94567 53.2109 5.7556 53.4316Z" fill="#DADADA"/>
<path d="M10.0299 51.1605C9.78866 51.0098 9.50922 50.9316 9.22481 50.9351C8.99572 50.9324 8.76937 50.9851 8.56505 51.0887C8.3942 51.1758 8.24563 51.3009 8.13078 51.4544V49.3689H7.51611V54.2529H8.13245V53.8037C8.24479 53.9566 8.39118 54.0812 8.56004 54.1677C8.76705 54.2721 8.9963 54.3248 9.22815 54.3213C9.51097 54.3242 9.78886 54.2472 10.0299 54.0992C10.2686 53.951 10.4635 53.7418 10.5944 53.4931C10.7295 53.226 10.7998 52.9309 10.7998 52.6315C10.7998 52.3322 10.7295 52.0371 10.5944 51.77C10.4632 51.5207 10.2685 51.3104 10.0299 51.1605ZM10.0299 53.2026C9.94392 53.3642 9.81726 53.5006 9.66242 53.5983C9.49848 53.6924 9.31277 53.7418 9.12376 53.7418C8.93475 53.7418 8.74903 53.6924 8.58509 53.5983C8.42935 53.504 8.30364 53.3673 8.22264 53.2043C8.13515 53.0268 8.09161 52.831 8.0957 52.6332C8.09176 52.4319 8.13645 52.2325 8.22598 52.0521C8.30706 51.8892 8.43275 51.7525 8.58843 51.6581C8.75241 51.5623 8.93972 51.5138 9.1296 51.5178C9.31517 51.5133 9.49828 51.561 9.65805 51.6555C9.81782 51.7499 9.94782 51.8874 10.0332 52.0521C10.1232 52.2308 10.1701 52.4281 10.1701 52.6282C10.1701 52.8283 10.1232 53.0256 10.0332 53.2043L10.0299 53.2026Z" fill="#DADADA"/>
<path d="M13.8417 51.1573C13.5799 51.0081 13.2829 50.9314 12.9815 50.9352C12.6791 50.931 12.3812 51.0089 12.1197 51.1606C11.8689 51.3057 11.6595 51.5126 11.5117 51.7617C11.3585 52.0191 11.2799 52.3139 11.2845 52.6133C11.2774 52.8407 11.316 53.0672 11.3981 53.2793C11.4803 53.4915 11.6042 53.685 11.7625 53.8483C11.9209 54.0117 12.1105 54.1416 12.32 54.2303C12.5296 54.319 12.7548 54.3647 12.9824 54.3647C13.2099 54.3647 13.4352 54.319 13.6447 54.2303C13.8542 54.1416 14.0438 54.0117 14.2022 53.8483C14.3606 53.685 14.4845 53.4915 14.5666 53.2793C14.6487 53.0672 14.6873 52.8407 14.6802 52.6133C14.6838 52.314 14.6052 52.0195 14.453 51.7617C14.3055 51.5104 14.0948 51.302 13.8417 51.1573ZM13.9069 53.1894C13.8187 53.3522 13.6883 53.4883 13.5294 53.5834C13.3624 53.6775 13.174 53.7269 12.9824 53.7269C12.7907 53.7269 12.6023 53.6775 12.4353 53.5834C12.2764 53.4883 12.146 53.3522 12.0579 53.1894C11.965 53.0135 11.9179 52.8171 11.9209 52.6183C11.9178 52.4227 11.965 52.2295 12.0579 52.0573C12.1463 51.8964 12.2767 51.7625 12.4353 51.6699C12.6014 51.5747 12.7901 51.5262 12.9815 51.5296C13.1688 51.5247 13.3539 51.5713 13.5165 51.6643C13.6791 51.7574 13.813 51.8933 13.9035 52.0573C13.9983 52.2289 14.0467 52.4223 14.0438 52.6183C14.0469 52.8171 13.9998 53.0135 13.9069 53.1894Z" fill="#DADADA"/>
<path d="M17.3142 51.02C17.1735 50.9616 17.0223 50.9326 16.8699 50.9349C16.7113 50.9247 16.5526 50.953 16.4072 51.0172C16.2618 51.0815 16.1341 51.1798 16.0348 51.3039C16.0145 51.3321 15.9961 51.3617 15.9797 51.3924V51.0033H15.3667V54.2526H15.983V52.3992C15.9733 52.279 15.9876 52.1579 16.0252 52.0433C16.0628 51.9286 16.1228 51.8226 16.2018 51.7313C16.2757 51.6588 16.3635 51.602 16.46 51.5644C16.5565 51.5268 16.6596 51.5092 16.7631 51.5126C16.861 51.5108 16.9584 51.5272 17.0503 51.561C17.1372 51.595 17.215 51.6487 17.2775 51.718L17.68 51.3005C17.5808 51.1807 17.4558 51.0848 17.3142 51.02Z" fill="#DADADA"/>
<path d="M20.4759 51.4495C20.3642 51.2995 20.2204 51.1763 20.055 51.0889C19.851 50.9844 19.6244 50.9316 19.3952 50.9352C19.1086 50.9308 18.8268 51.0091 18.5835 51.1606C18.3443 51.3109 18.1485 51.521 18.0156 51.7701C17.8784 52.0366 17.8069 52.332 17.8069 52.6317C17.8069 52.9314 17.8784 53.2268 18.0156 53.4933C18.1485 53.7426 18.3457 53.9519 18.5868 54.0994C18.83 54.248 19.1102 54.325 19.3952 54.3214C19.6272 54.3259 19.8566 54.2732 20.0633 54.1678C20.2266 54.0815 20.3683 53.9594 20.4776 53.8105V54.253H21.1006V51.0037H20.4776L20.4759 51.4495ZM20.237 53.4315C20.1442 53.5346 20.0298 53.6161 19.9019 53.6701C19.774 53.724 19.6358 53.7492 19.4971 53.7437C19.3048 53.7468 19.1153 53.6971 18.9493 53.6001C18.7912 53.5055 18.6624 53.3691 18.5768 53.2061C18.4889 53.0273 18.4432 52.8308 18.4432 52.6317C18.4432 52.4325 18.4889 52.236 18.5768 52.0573C18.6618 51.8949 18.7894 51.7587 18.9459 51.6632C19.1117 51.5702 19.2986 51.5214 19.4888 51.5214C19.6789 51.5214 19.8658 51.5702 20.0316 51.6632C20.1858 51.757 20.3102 51.8925 20.3907 52.054C20.4785 52.236 20.522 52.4363 20.5176 52.6384C20.5285 52.9288 20.4281 53.2124 20.237 53.4315Z" fill="#DADADA"/>
<path d="M23.0963 49.6426H22.48V51.0034H21.6799V51.5644H22.48V54.2527H23.0963V51.5644H23.8981V51.0034H23.0963V49.6426Z" fill="#DADADA"/>
<path d="M26.5724 49.6211L26.088 49.1353L25.1978 50.2373L25.4784 50.5178L26.5724 49.6211Z" fill="#DADADA"/>
<path d="M26.741 51.1572C26.3514 50.9302 25.8879 50.8663 25.4514 50.9796C25.015 51.0928 24.641 51.3739 24.411 51.7616C24.2591 52.0194 24.1811 52.314 24.1855 52.6132C24.1855 53.0631 24.3643 53.4946 24.6825 53.8127C25.0008 54.1309 25.4324 54.3096 25.8825 54.3096C26.3326 54.3096 26.7642 54.1309 27.0824 53.8127C27.4007 53.4946 27.5795 53.0631 27.5795 52.6132C27.5833 52.3173 27.5079 52.0258 27.3611 51.7689C27.2142 51.512 27.0013 51.299 26.7443 51.1521L26.741 51.1572ZM26.8061 53.1892C26.7181 53.3516 26.5884 53.4876 26.4303 53.5833C26.2631 53.6775 26.0744 53.727 25.8825 53.727C25.6905 53.727 25.5018 53.6775 25.3346 53.5833C25.1758 53.4886 25.0459 53.3523 24.9588 53.1892C24.8653 53.0136 24.8182 52.8171 24.8219 52.6182C24.8179 52.4224 24.8651 52.2291 24.9588 52.0571C25.0463 51.8961 25.1763 51.7621 25.3346 51.6698C25.5013 51.5745 25.6906 51.5261 25.8825 51.5295C26.0695 51.5248 26.2542 51.5716 26.4165 51.6646C26.5788 51.7577 26.7124 51.8934 26.8028 52.0571C26.8983 52.2285 26.9467 52.4221 26.9431 52.6182C26.9462 52.817 26.899 53.0134 26.8061 53.1892Z" fill="#DADADA"/>
<path d="M30.2139 51.02C30.0731 50.9616 29.9219 50.9326 29.7696 50.9349C29.6109 50.9247 29.4522 50.953 29.3068 51.0172C29.1615 51.0815 29.0337 51.1798 28.9344 51.3039C28.9144 51.3306 28.8994 51.3623 28.8793 51.3924V51.0033H28.2646V54.2526H28.8793V52.3992C28.8694 52.2788 28.8838 52.1576 28.9217 52.0429C28.9596 51.9282 29.0201 51.8222 29.0998 51.7313C29.1735 51.6586 29.2613 51.6016 29.3578 51.564C29.4543 51.5264 29.5575 51.5089 29.661 51.5126C29.7589 51.5111 29.8563 51.5275 29.9483 51.561C30.0344 51.5954 30.1116 51.6491 30.1738 51.718L30.578 51.3005C30.4791 51.181 30.3547 51.0851 30.2139 51.02Z" fill="#DADADA"/>
<path d="M31.3294 49.5661C31.2777 49.5647 31.2264 49.5739 31.1784 49.593C31.1305 49.6122 31.0869 49.641 31.0505 49.6775C31.014 49.7141 30.9855 49.7578 30.9665 49.8058C30.9475 49.8538 30.9386 49.9052 30.9402 49.9568C30.9383 50.009 30.947 50.061 30.9656 50.1098C30.9843 50.1585 31.0125 50.203 31.0488 50.2407C31.1241 50.3133 31.2247 50.3539 31.3294 50.3539C31.434 50.3539 31.5346 50.3133 31.61 50.2407C31.6464 50.2031 31.675 50.1587 31.6939 50.1099C31.7128 50.0611 31.7218 50.0091 31.7202 49.9568C31.7214 49.9056 31.7123 49.8546 31.6934 49.807C31.6744 49.7593 31.6461 49.716 31.61 49.6796C31.5736 49.6423 31.5299 49.6129 31.4816 49.5934C31.4333 49.5738 31.3815 49.5645 31.3294 49.5661Z" fill="#DADADA"/>
<path d="M31.6385 51.0037H31.0222V54.253H31.6385V51.0037Z" fill="#DADADA"/>
<path d="M34.8922 51.1573C34.6309 51.0083 34.3345 50.9317 34.0337 50.9352C33.7307 50.9307 33.4322 51.0086 33.1702 51.1607C32.9224 51.3068 32.7161 51.5137 32.5706 51.7618C32.4182 52.0194 32.3396 52.314 32.3434 52.6133C32.3436 52.9117 32.422 53.2047 32.5708 53.4634C32.7195 53.722 32.9334 53.9372 33.1912 54.0875C33.449 54.2378 33.7417 54.318 34.0402 54.3201C34.3386 54.3222 34.6324 54.2461 34.8922 54.0994C35.1496 53.9487 35.3624 53.7326 35.5091 53.4731C35.6558 53.2135 35.7311 52.9198 35.7274 52.6217C35.7316 52.3213 35.653 52.0255 35.5002 51.7668C35.3543 51.514 35.1447 51.3039 34.8922 51.1573ZM34.9574 53.1894C34.868 53.3555 34.7345 53.4936 34.5714 53.5885C34.4084 53.6834 34.2223 53.7313 34.0337 53.727C33.8414 53.7304 33.6518 53.6807 33.4859 53.5834C33.3269 53.4883 33.1966 53.3522 33.1084 53.1894C33.016 53.0134 32.9695 52.817 32.9731 52.6183C32.9695 52.4228 33.0161 52.2297 33.1084 52.0573C33.1968 51.8964 33.3273 51.7625 33.4859 51.6699C33.6524 51.5745 33.8418 51.526 34.0337 51.5297C34.2207 51.525 34.4054 51.5717 34.5677 51.6648C34.73 51.7578 34.8636 51.8936 34.954 52.0573C35.0496 52.2286 35.098 52.4222 35.0943 52.6183C35.0974 52.8172 35.0503 53.0136 34.9574 53.1894Z" fill="#DADADA"/>
<path d="M40.3087 51.4544C40.194 51.3021 40.0468 51.1772 39.8778 51.0887C39.6741 50.9849 39.4483 50.9322 39.2197 50.9351C38.9358 50.9314 38.6568 51.0096 38.4163 51.1605C38.1785 51.3114 37.984 51.5214 37.8518 51.77C37.7146 52.0365 37.6431 52.3318 37.6431 52.6315C37.6431 52.9312 37.7146 53.2266 37.8518 53.4931C37.9836 53.7411 38.1783 53.9501 38.4163 54.0992C38.6584 54.249 38.9384 54.326 39.2231 54.3213C39.4549 54.3253 39.6843 54.2726 39.8912 54.1677C40.0584 54.0802 40.2035 53.9557 40.3154 53.8037V54.2529H40.9384V49.3689H40.3154L40.3087 51.4544ZM39.8594 53.5983C39.6981 53.6964 39.512 53.7462 39.3233 53.7419C39.1319 53.7455 38.9434 53.6958 38.7788 53.5983C38.6222 53.5029 38.4946 53.3667 38.4096 53.2043C38.3218 53.0255 38.2761 52.829 38.2761 52.6299C38.2761 52.4307 38.3218 52.2342 38.4096 52.0555C38.4945 51.8893 38.6248 51.7506 38.7853 51.6555C38.9458 51.5603 39.13 51.5126 39.3166 51.5178C39.5054 51.5135 39.6914 51.5634 39.8527 51.6614C40.006 51.7573 40.1311 51.8922 40.2152 52.0521C40.3085 52.2313 40.3545 52.4313 40.3488 52.6332C40.3524 52.8311 40.3083 53.027 40.2202 53.2043C40.1378 53.3658 40.0131 53.502 39.8594 53.5983Z" fill="#DADADA"/>
<path d="M44.0955 51.1407C43.8536 51.0008 43.5781 50.9298 43.2988 50.9354C43.0037 50.9315 42.713 51.0069 42.457 51.1538C42.2011 51.3006 41.9894 51.5135 41.8439 51.7702C41.6946 52.0326 41.6179 52.33 41.6218 52.6318C41.6148 52.9301 41.6887 53.2246 41.8358 53.4842C41.9828 53.7438 42.1975 53.9588 42.4569 54.1062C42.7245 54.2563 43.027 54.3329 43.3338 54.3283C43.5816 54.3295 43.827 54.2807 44.0554 54.1847C44.2761 54.0925 44.4718 53.9495 44.6266 53.7672L44.2291 53.3631C44.1233 53.4891 43.9886 53.5876 43.8366 53.6503C43.6778 53.7161 43.5074 53.7491 43.3355 53.7472C43.1339 53.7474 42.9356 53.6963 42.7593 53.5986C42.5931 53.5074 42.4577 53.3691 42.3701 53.2012C42.3141 53.0927 42.2758 52.976 42.2565 52.8556H44.7987C44.8117 52.7961 44.8212 52.7358 44.8271 52.6752C44.8271 52.6218 44.8271 52.5734 44.8271 52.5283C44.8318 52.2424 44.7646 51.9599 44.6316 51.7068C44.5084 51.4724 44.3229 51.2765 44.0955 51.1407ZM42.7309 51.6417C42.9003 51.5477 43.0917 51.5004 43.2854 51.5047C43.4647 51.4992 43.6421 51.5431 43.7982 51.6316C43.942 51.7149 44.0581 51.8386 44.1322 51.9873C44.1862 52.1005 44.2212 52.2218 44.2358 52.3463H42.2481C42.267 52.234 42.3031 52.1253 42.355 52.024C42.4382 51.863 42.5665 51.7295 42.7242 51.64L42.7309 51.6417Z" fill="#DADADA"/>
<path d="M47.4676 49.5059H47.0283V54.2529H47.6714V52.1674H49.9446V51.578H47.6714V50.0936H50.0599V49.5059H47.6714H47.4676Z" fill="#DADADA"/>
<path d="M52.9076 49.6211L52.4215 49.1353L51.5312 50.2373L51.8119 50.5178L52.9076 49.6211Z" fill="#DADADA"/>
<path d="M53.1264 51.4497C53.0142 51.3 52.8705 51.1769 52.7055 51.089C52.4989 50.9832 52.2693 50.9304 52.0373 50.9354C51.7513 50.9312 51.47 51.0095 51.2273 51.1608C50.9881 51.311 50.7923 51.5211 50.6594 51.7702C50.5222 52.0367 50.4507 52.3321 50.4507 52.6318C50.4507 52.9315 50.5222 53.2269 50.6594 53.4934C50.7923 53.7428 50.9895 53.9521 51.2306 54.0995C51.4731 54.2484 51.7528 54.3254 52.0373 54.3216C52.2693 54.326 52.4987 54.2732 52.7055 54.168C52.8688 54.0817 53.0104 53.9595 53.1197 53.8107V54.2531H53.7427V51.0038H53.1197L53.1264 51.4497ZM52.8858 53.4316C52.7933 53.5347 52.6792 53.6162 52.5516 53.6702C52.424 53.7241 52.286 53.7493 52.1476 53.7439C51.9553 53.747 51.7658 53.6973 51.5997 53.6003C51.4417 53.5056 51.3128 53.3693 51.2273 53.2062C51.1394 53.0275 51.0937 52.831 51.0937 52.6318C51.0937 52.4327 51.1394 52.2362 51.2273 52.0574C51.3123 51.895 51.4399 51.7588 51.5964 51.6634C51.7622 51.5704 51.9491 51.5215 52.1392 51.5215C52.3294 51.5215 52.5163 51.5704 52.6821 51.6634C52.8362 51.7572 52.9607 51.8926 53.0412 52.0541C53.1284 52.2363 53.1713 52.4366 53.1665 52.6385C53.1773 52.9289 53.0769 53.2126 52.8858 53.4316Z" fill="#DADADA"/>
<path d="M57.1603 51.1605C56.9197 51.0099 56.6408 50.9316 56.3569 50.9351C56.125 50.9314 55.8957 50.9841 55.6888 51.0887C55.5186 51.1767 55.3702 51.3016 55.2545 51.4544V49.3689H54.6382V54.2529H55.2545V53.8037C55.3673 53.9562 55.5136 54.0807 55.6821 54.1677C55.8892 54.2719 56.1184 54.3246 56.3502 54.3213C56.6337 54.3251 56.9124 54.2481 57.1536 54.0992C57.3928 53.9515 57.5878 53.7421 57.7182 53.4931C57.8532 53.226 57.9236 52.9309 57.9236 52.6315C57.9236 52.3322 57.8532 52.0371 57.7182 51.77C57.5893 51.5212 57.3968 51.3109 57.1603 51.1605ZM57.1603 53.2026C57.0741 53.3651 56.9461 53.5017 56.7895 53.5983C56.6256 53.6924 56.4398 53.7418 56.2508 53.7418C56.0618 53.7418 55.8761 53.6924 55.7122 53.5983C55.5559 53.5041 55.4297 53.3674 55.3481 53.2043C55.2639 53.0239 55.2202 52.8273 55.2202 52.6282C55.2202 52.4292 55.2639 52.2325 55.3481 52.0521C55.4287 51.8888 55.5545 51.7521 55.7105 51.6581C55.8745 51.5661 56.0594 51.5178 56.2475 51.5178C56.4356 51.5178 56.6205 51.5661 56.7845 51.6581C56.9413 51.7532 57.069 51.8895 57.1536 52.0521C57.2436 52.2308 57.2905 52.4281 57.2905 52.6282C57.2905 52.8283 57.2436 53.0256 57.1536 53.2043L57.1603 53.2026Z" fill="#DADADA"/>
<path d="M60.5728 51.02C60.4315 50.9616 60.2798 50.9326 60.1269 50.9349C59.9682 50.9247 59.8095 50.953 59.6641 51.0172C59.5188 51.0815 59.391 51.1798 59.2917 51.3039C59.2717 51.3306 59.2566 51.3623 59.2383 51.3907V51.0033H58.627V54.2526H59.2433V52.3992C59.2332 52.2789 59.2473 52.1578 59.2849 52.0431C59.3225 51.9284 59.3828 51.8223 59.4621 51.7313C59.5358 51.6586 59.6236 51.6016 59.7201 51.564C59.8166 51.5264 59.9198 51.5089 60.0233 51.5126C60.1212 51.511 60.2186 51.5274 60.3106 51.561C60.3967 51.5954 60.4739 51.6491 60.5361 51.718L60.9403 51.3005C60.8406 51.1805 60.715 51.0846 60.5728 51.02Z" fill="#DADADA"/>
<path d="M61.996 51.0037H61.3796V54.253H61.996V51.0037Z" fill="#DADADA"/>
<path d="M61.687 49.5662C61.6349 49.5646 61.583 49.5739 61.5347 49.5934C61.4864 49.613 61.4427 49.6424 61.4063 49.6797C61.3708 49.7164 61.3429 49.7598 61.3242 49.8074C61.3056 49.855 61.2966 49.9058 61.2978 49.9569C61.2963 50.009 61.3051 50.0609 61.3237 50.1096C61.3423 50.1583 61.3704 50.2029 61.4063 50.2407C61.4427 50.2781 61.4864 50.3074 61.5347 50.327C61.583 50.3465 61.6349 50.3558 61.687 50.3543C61.7391 50.3561 61.791 50.347 61.8394 50.3274C61.8877 50.3079 61.9314 50.2783 61.9676 50.2407C62.004 50.2032 62.0325 50.1587 62.0515 50.11C62.0704 50.0612 62.0794 50.0092 62.0778 49.9569C62.079 49.9056 62.0699 49.8547 62.051 49.807C62.032 49.7594 62.0036 49.7161 61.9676 49.6797C61.9314 49.6421 61.8877 49.6126 61.8394 49.593C61.791 49.5734 61.7391 49.5643 61.687 49.5662Z" fill="#DADADA"/>
<path d="M63.8434 51.6699C64.01 51.5747 64.1993 51.5262 64.3912 51.5297C64.5547 51.5279 64.7167 51.5597 64.8673 51.6232C65.0088 51.6834 65.1341 51.776 65.2331 51.8937L65.644 51.4829C65.492 51.3072 65.3025 51.168 65.0894 51.0755C64.8689 50.9809 64.6312 50.9331 64.3912 50.9352C64.0882 50.9308 63.7895 51.0075 63.526 51.1573C63.2723 51.3013 63.0618 51.5106 62.9164 51.7634C62.7707 52.0267 62.6943 52.3225 62.6943 52.6233C62.6943 52.9241 62.7707 53.22 62.9164 53.4833C63.0611 53.7384 63.2716 53.95 63.526 54.096C63.7888 54.2478 64.0878 54.3256 64.3912 54.3215C64.6325 54.3231 64.8715 54.2741 65.0928 54.1779C65.3046 54.0863 65.493 53.9482 65.644 53.7738L65.2397 53.363C65.1377 53.4803 65.0104 53.5728 64.8673 53.6335C64.7167 53.697 64.5547 53.7288 64.3912 53.727C64.1989 53.7301 64.0094 53.6805 63.8434 53.5834C63.6855 53.4891 63.5557 53.3542 63.4676 53.1927C63.3776 53.017 63.3306 52.8224 63.3306 52.625C63.3306 52.4276 63.3776 52.233 63.4676 52.0573C63.555 51.8962 63.685 51.7623 63.8434 51.6699Z" fill="#DADADA"/>
<path d="M68.6486 51.4496C68.5365 51.3 68.3928 51.1769 68.2277 51.089C68.0211 50.9834 67.7915 50.9306 67.5596 50.9354C67.2735 50.9312 66.9923 51.0094 66.7495 51.1608C66.5099 51.3105 66.3141 51.5207 66.1816 51.7702C66.0444 52.0367 65.9729 52.3321 65.9729 52.6318C65.9729 52.9315 66.0444 53.2269 66.1816 53.4934C66.3145 53.7428 66.5117 53.952 66.7528 54.0995C66.9953 54.2484 67.275 54.3254 67.5596 54.3216C67.7915 54.3258 68.0209 54.273 68.2277 54.168C68.391 54.0817 68.5326 53.9595 68.6419 53.8106V54.2531H69.2632V51.0038H68.6486V51.4496ZM68.4147 53.4316C68.3222 53.5347 68.2081 53.6162 68.0805 53.6701C67.9529 53.7241 67.8149 53.7493 67.6765 53.7438C67.4841 53.7472 67.2946 53.6975 67.1286 53.6002C66.9706 53.5056 66.8417 53.3693 66.7562 53.2062C66.6683 53.0274 66.6226 52.8309 66.6226 52.6318C66.6226 52.4326 66.6683 52.2361 66.7562 52.0574C66.8412 51.895 66.9688 51.7588 67.1253 51.6634C67.2908 51.5703 67.4774 51.5214 67.6673 51.5214C67.8572 51.5214 68.0438 51.5703 68.2093 51.6634C68.3643 51.7561 68.489 51.8918 68.5684 52.0541C68.6569 52.2359 68.7005 52.4363 68.6954 52.6385C68.7062 52.9289 68.6058 53.2125 68.4147 53.4316Z" fill="#DADADA"/>
<path d="M70.8061 51.5946C70.9304 51.5255 71.0718 51.4936 71.2137 51.5028C71.3703 51.5001 71.5256 51.5326 71.668 51.5979C71.7993 51.6618 71.9137 51.7556 72.0021 51.8718L72.3996 51.4761C72.2756 51.3008 72.1065 51.1623 71.9102 51.0753C71.695 50.9832 71.4628 50.9377 71.2287 50.9417C71.0162 50.9358 70.8048 50.9757 70.609 51.0586C70.4466 51.1291 70.3079 51.2451 70.2099 51.3926C70.1112 51.5444 70.0611 51.7226 70.0662 51.9035C70.0581 52.0697 70.1019 52.2342 70.1915 52.3744C70.2785 52.4935 70.3931 52.5898 70.5255 52.6549C70.6601 52.724 70.8011 52.7799 70.9464 52.8219C71.0945 52.8653 71.2348 52.9087 71.3674 52.9521C71.4851 52.9878 71.5954 53.0443 71.6931 53.1191C71.7344 53.1521 71.7673 53.1944 71.7891 53.2426C71.8109 53.2908 71.8209 53.3434 71.8183 53.3962C71.8196 53.4523 71.8057 53.5077 71.7781 53.5565C71.7504 53.6053 71.7101 53.6457 71.6613 53.6734C71.5252 53.7467 71.3714 53.7808 71.217 53.7719C71.0378 53.7745 70.8601 53.7387 70.6959 53.6667C70.5367 53.5905 70.3967 53.4792 70.2867 53.3411L69.8892 53.7385C69.9906 53.8621 70.1106 53.9691 70.2449 54.0558C70.3836 54.1452 70.5343 54.2144 70.6926 54.2612C70.8608 54.3101 71.0352 54.3343 71.2104 54.333C71.5233 54.3489 71.8319 54.2543 72.0822 54.0658C72.1893 53.9787 72.2745 53.8679 72.331 53.7421C72.3876 53.6162 72.4139 53.479 72.4079 53.3411C72.4165 53.17 72.3722 53.0004 72.281 52.8553C72.195 52.7318 72.0804 52.631 71.9469 52.5614C71.8147 52.4877 71.6746 52.4289 71.5294 52.3861L71.1085 52.2608C70.9933 52.2279 70.884 52.1772 70.7844 52.1106C70.7444 52.0818 70.7121 52.0436 70.6906 51.9993C70.669 51.955 70.6588 51.906 70.6608 51.8568C70.6591 51.804 70.6717 51.7518 70.6973 51.7056C70.7229 51.6595 70.7605 51.6211 70.8061 51.5946Z" fill="#DADADA"/>
<path d="M76.9832 51.4544C76.8684 51.3021 76.7212 51.1772 76.5523 51.0887C76.3486 50.9849 76.1228 50.9322 75.8942 50.9351C75.6091 50.9307 75.3289 51.009 75.0874 51.1605C74.8497 51.3114 74.6551 51.5214 74.5229 51.77C74.3858 52.0365 74.3142 52.3318 74.3142 52.6315C74.3142 52.9312 74.3858 53.2266 74.5229 53.4931C74.6548 53.7411 74.8494 53.9501 75.0874 54.0992C75.3295 54.249 75.6096 54.326 75.8942 54.3213C76.1261 54.3253 76.3555 54.2726 76.5623 54.1677C76.7299 54.0807 76.8751 53.9561 76.9866 53.8037V54.2529H77.6096V49.3689H76.9832V51.4544ZM76.5339 53.5983C76.3726 53.6964 76.1865 53.7462 75.9978 53.7419C75.8064 53.7455 75.6179 53.6958 75.4532 53.5983C75.2967 53.5029 75.1691 53.3667 75.0841 53.2043C74.9962 53.0255 74.9506 52.829 74.9506 52.6299C74.9506 52.4307 74.9962 52.2342 75.0841 52.0555C75.169 51.8893 75.2992 51.7506 75.4598 51.6555C75.6203 51.5603 75.8045 51.5126 75.9911 51.5178C76.1798 51.5135 76.3659 51.5634 76.5272 51.6614C76.6805 51.7573 76.8056 51.8922 76.8897 52.0521C76.983 52.2313 77.029 52.4313 77.0233 52.6332C77.0271 52.8313 76.9824 53.0274 76.893 53.2043C76.8117 53.3661 76.6875 53.5024 76.5339 53.5983Z" fill="#DADADA"/>
<path d="M80.7643 51.1407C80.5218 51.0009 80.2457 50.9298 79.9659 50.9354C79.6708 50.9315 79.3801 51.0069 79.1242 51.1538C78.8682 51.3006 78.6565 51.5135 78.511 51.7702C78.3617 52.0326 78.285 52.33 78.2889 52.6318C78.283 52.9299 78.3574 53.224 78.5043 53.4834C78.6513 53.7428 78.8653 53.9579 79.124 54.1062C79.3916 54.2563 79.6941 54.3329 80.0009 54.3283C80.2487 54.3295 80.4941 54.2807 80.7225 54.1847C80.9432 54.0925 81.1389 53.9494 81.2937 53.7672L80.8979 53.3631C80.7911 53.4887 80.656 53.5872 80.5037 53.6503C80.3449 53.7161 80.1745 53.7491 80.0026 53.7472C79.8 53.7511 79.5998 53.7028 79.4214 53.6069C79.2544 53.5163 79.1183 53.378 79.0305 53.2095C78.9746 53.1011 78.9362 52.9844 78.9169 52.8639H81.4608C81.4741 52.7954 81.4825 52.7353 81.4875 52.6836C81.4925 52.6318 81.4875 52.5817 81.4875 52.5366C81.4922 52.2508 81.425 51.9683 81.2921 51.7151C81.172 51.479 80.9894 51.2803 80.7643 51.1407ZM79.398 51.6417C79.5674 51.5477 79.7588 51.5004 79.9525 51.5047C80.1319 51.499 80.3093 51.5429 80.4653 51.6316C80.6091 51.7149 80.7252 51.8386 80.7993 51.9873C80.8548 52.0999 80.8899 52.2214 80.9029 52.3463H78.9219C78.9408 52.234 78.9769 52.1253 79.0288 52.024C79.112 51.8629 79.2403 51.7295 79.398 51.64V51.6417Z" fill="#DADADA"/>
<path d="M86.173 51.9469C86.0341 51.8421 85.8826 51.7551 85.722 51.6881C85.555 51.6197 85.388 51.5562 85.2209 51.4995C85.0648 51.4469 84.9125 51.3839 84.7649 51.3108C84.6377 51.2516 84.524 51.1669 84.4309 51.062C84.3422 50.9529 84.297 50.815 84.3039 50.6746C84.3001 50.5841 84.3186 50.4941 84.358 50.4125C84.3973 50.331 84.4562 50.2604 84.5294 50.2071C84.7093 50.0871 84.9232 50.0286 85.1391 50.0401C85.3322 50.0367 85.5234 50.0791 85.697 50.1637C85.8711 50.2557 86.0255 50.3811 86.1513 50.5327L86.5889 50.0952C86.4262 49.894 86.2208 49.7314 85.9876 49.6193C85.7267 49.496 85.441 49.4343 85.1524 49.439C84.8899 49.4343 84.6294 49.4867 84.3891 49.5926C84.174 49.6863 83.989 49.8377 83.8546 50.0301C83.7214 50.2343 83.6538 50.4743 83.6609 50.718C83.6534 50.9256 83.6964 51.1318 83.7862 51.3191C83.8657 51.4725 83.9801 51.6052 84.1202 51.7065C84.2603 51.8069 84.4123 51.8893 84.5729 51.952C84.7399 52.0187 84.9069 52.0805 85.0656 52.1373C85.2214 52.1903 85.3733 52.2545 85.5199 52.3293C85.6509 52.3921 85.7654 52.4847 85.854 52.5998C85.9414 52.7259 85.9849 52.8773 85.9776 53.0306C85.9796 53.1289 85.9571 53.2261 85.9122 53.3135C85.8673 53.401 85.8014 53.4759 85.7203 53.5315C85.5186 53.6639 85.2799 53.7288 85.0389 53.7169C84.7871 53.7228 84.5378 53.6654 84.314 53.5499C84.107 53.4333 83.9294 53.2711 83.7945 53.0757L83.3552 53.5132C83.5453 53.7591 83.7856 53.9617 84.0601 54.1076C84.3586 54.2519 84.6874 54.3223 85.0188 54.313C85.4381 54.3343 85.8517 54.2085 86.188 53.9573C86.3318 53.838 86.4459 53.6868 86.5213 53.5159C86.5966 53.3449 86.6312 53.1588 86.6223 52.9722C86.6299 52.7564 86.5864 52.5418 86.4953 52.346C86.4185 52.1909 86.3084 52.0547 86.173 51.9469Z" fill="#DADADA"/>
<path d="M89.6944 51.1572C89.304 50.9281 88.8386 50.863 88.4003 50.9763C87.9619 51.0896 87.5864 51.3721 87.356 51.7617C87.2042 52.0195 87.1262 52.3141 87.1305 52.6132C87.1288 52.914 87.2065 53.2098 87.3559 53.4709C87.5053 53.7319 87.721 53.9488 87.9813 54.0997C88.2416 54.2505 88.5371 54.3299 88.8379 54.3299C89.1387 54.3298 89.4342 54.2503 89.6944 54.0993C89.9494 53.9529 90.161 53.7414 90.3074 53.4865C90.4592 53.2238 90.5371 52.9249 90.5329 52.6216C90.5368 52.3257 90.4614 52.0342 90.3145 51.7773C90.1677 51.5204 89.9547 51.3075 89.6978 51.1606L89.6944 51.1572ZM89.7596 53.1893C89.672 53.3521 89.5422 53.4882 89.3837 53.5834C89.2165 53.6776 89.0278 53.7271 88.8359 53.7271C88.644 53.7271 88.4553 53.6776 88.288 53.5834C88.13 53.4877 88.0003 53.3517 87.9122 53.1893C87.8187 53.0137 87.7716 52.8172 87.7753 52.6183C87.7713 52.4225 87.8185 52.2291 87.9122 52.0572C88.0005 51.8968 88.1303 51.763 88.288 51.6699C88.4547 51.5746 88.644 51.5262 88.8359 51.5296C89.023 51.5244 89.2079 51.5709 89.3703 51.664C89.5327 51.7571 89.6662 51.8931 89.7562 52.0572C89.8517 52.2286 89.9001 52.4221 89.8965 52.6183C89.8982 52.8177 89.8487 53.0143 89.7529 53.1893H89.7596Z" fill="#DADADA"/>
<path d="M92.3563 50.0455C92.4163 49.9872 92.4879 49.9422 92.5665 49.9135C92.6451 49.8847 92.7288 49.8728 92.8123 49.8785C92.8996 49.875 92.9865 49.8911 93.0669 49.9255C93.1472 49.9598 93.2188 50.0117 93.2766 50.0772L93.6808 49.6798C93.5754 49.5623 93.4476 49.467 93.305 49.3993C93.1518 49.3326 92.986 49.3001 92.819 49.3041C92.5934 49.2985 92.3704 49.3526 92.1726 49.4611C91.9914 49.5618 91.8408 49.7094 91.7366 49.8885C91.6291 50.0818 91.575 50.3002 91.5796 50.5213V51.0072H90.7795V51.5683H91.5796V54.2565H92.1993V51.5683H93.2332V51.0072H92.1993V50.5213C92.1878 50.3484 92.2442 50.1777 92.3563 50.0455Z" fill="#DADADA"/>
<path d="M94.7684 49.6426H94.1538V51.0034H93.3521V51.5644H94.1538V54.2527H94.7684V51.5644H95.5702V51.0034H94.7684V49.6426Z" fill="#DADADA"/>
<path d="M99.2865 53.2545L98.4647 51.0037H98.109L97.2872 53.2545L96.4587 51.0037H95.8157L97.1035 54.253H97.4592L98.2894 52.0923L99.1145 54.253H99.4786L100.758 51.0037H100.113L99.2865 53.2545Z" fill="#DADADA"/>
<path d="M103.673 51.4495C103.561 51.2995 103.417 51.1763 103.252 51.0889C103.048 50.9844 102.821 50.9316 102.592 50.9352C102.306 50.9315 102.024 51.0097 101.78 51.1606C101.541 51.3109 101.346 51.521 101.213 51.7701C101.075 52.0366 101.004 52.332 101.004 52.6317C101.004 52.9314 101.075 53.2268 101.213 53.4933C101.345 53.7426 101.543 53.9519 101.784 54.0994C102.027 54.248 102.307 54.325 102.592 54.3214C102.824 54.3259 103.054 54.2732 103.26 54.1678C103.424 54.082 103.566 53.9597 103.675 53.8105V54.253H104.298V51.0037H103.675L103.673 51.4495ZM103.434 53.4315C103.341 53.5346 103.227 53.6161 103.099 53.6701C102.971 53.724 102.833 53.7492 102.694 53.7437C102.502 53.7468 102.312 53.6971 102.146 53.6001C101.988 53.5055 101.859 53.3691 101.774 53.2061C101.686 53.0273 101.64 52.8308 101.64 52.6317C101.64 52.4325 101.686 52.236 101.774 52.0573C101.859 51.8949 101.986 51.7587 102.143 51.6632C102.309 51.5702 102.496 51.5214 102.686 51.5214C102.876 51.5214 103.063 51.5702 103.229 51.6632C103.383 51.7565 103.508 51.8921 103.588 52.054C103.676 52.236 103.719 52.4363 103.715 52.6384C103.725 52.9288 103.625 53.2124 103.434 53.4315Z" fill="#DADADA"/>
<path d="M107.135 51.02C106.994 50.9616 106.843 50.9326 106.691 50.9349C106.532 50.9247 106.373 50.953 106.228 51.0172C106.083 51.0815 105.955 51.1798 105.856 51.3039C105.836 51.3306 105.819 51.3623 105.8 51.3907V51.0033H105.186V54.2526H105.8V52.3992C105.791 52.279 105.805 52.1579 105.843 52.0433C105.88 51.9286 105.94 51.8226 106.019 51.7313C106.093 51.6588 106.181 51.602 106.277 51.5644C106.374 51.5268 106.477 51.5092 106.58 51.5126C106.678 51.5108 106.776 51.5272 106.868 51.561C106.955 51.595 107.032 51.6487 107.095 51.718L107.497 51.3005C107.399 51.1811 107.275 51.0852 107.135 51.02Z" fill="#DADADA"/>
<path d="M110.636 51.7084C110.512 51.4728 110.324 51.2763 110.095 51.1407C109.853 51.0008 109.577 50.9298 109.298 50.9354C109.003 50.9315 108.712 51.0069 108.456 51.1538C108.2 51.3006 107.989 51.5135 107.843 51.7702C107.694 52.0326 107.617 52.33 107.621 52.6318C107.614 52.9301 107.688 53.2246 107.835 53.4842C107.982 53.7438 108.197 53.9588 108.456 54.1062C108.724 54.2563 109.026 54.3329 109.333 54.3283C109.581 54.3295 109.826 54.2807 110.055 54.1847C110.275 54.0925 110.471 53.9495 110.626 53.7672L110.238 53.3565C110.133 53.4824 109.998 53.5809 109.846 53.6437C109.687 53.7094 109.517 53.7424 109.345 53.7405C109.142 53.7447 108.941 53.6964 108.762 53.6003C108.595 53.5096 108.46 53.3712 108.373 53.2029C108.316 53.0947 108.278 52.9779 108.259 52.8572H110.801C110.815 52.7888 110.825 52.7287 110.83 52.6769C110.835 52.6251 110.83 52.575 110.83 52.53C110.835 52.2442 110.768 51.9617 110.636 51.7084ZM108.735 51.64C108.905 51.546 109.096 51.4987 109.29 51.5031C109.469 51.4975 109.646 51.5414 109.802 51.63C109.946 51.7133 110.062 51.8369 110.136 51.9856C110.191 52.0986 110.225 52.22 110.238 52.3446H108.254C108.273 52.2323 108.309 52.1237 108.361 52.0224C108.446 51.8612 108.576 51.7283 108.735 51.64Z" fill="#DADADA"/>
</svg>
